<svg xmlns="http://www.w3.org/2000/svg" viewBox="0 0 100 100" width="100" height="100">
  <circle cx="50" cy="50" r="48" fill="#FF7043"/>
  <ellipse cx="50" cy="54" rx="20" ry="20" fill="#FFCC99"/>
  <rect x="32" y="12" width="36" height="26" fill="#0D0D0D"/>
  <rect x="26" y="36" width="48" height="6" fill="#0D0D0D"/>
  <rect x="36" y="18" width="28" height="3" fill="#D4AF37"/>
  <rect x="34" y="50" width="32" height="9" rx="2" fill="#0D0D0D"/>
  <rect x="36" y="52" width="12" height="5" fill="#D4AF37"/>
  <rect x="52" y="52" width="12" height="5" fill="#D4AF37"/>
  <path d="M42,68 Q50,74 58,68" fill="none" stroke="#1A1A1A" stroke-width="2"/>
  <rect x="58" y="66" width="22" height="5" fill="#5D4037"/>
  <circle cx="80" cy="68" r="3" fill="#FF4500"/>
  <path d="M36,78 Q50,88 64,78" fill="none" stroke="#D4AF37" stroke-width="3"/>
  <path d="M28,78 L72,78 L72,96 L28,96 Z" fill="#1A1A1A"/>
</svg>
