<svg xmlns="http://www.w3.org/2000/svg" viewBox="0 0 100 100" width="100" height="100">
  <circle cx="50" cy="50" r="48" fill="#CE93D8"/>
  <path d="M30,46 Q28,24 50,20 Q72,24 70,46 Q70,58 66,66 L64,66 Q68,54 66,44 Q58,36 50,34 Q42,36 34,44 Q32,54 36,66 L34,66 Q30,58 30,46" fill="#1A1A1A"/>
  <ellipse cx="50" cy="52" rx="15" ry="17" fill="#FFE0B2"/>
  <circle cx="43" cy="50" r="3" fill="#1A1A1A"/>
  <circle cx="57" cy="50" r="3" fill="#1A1A1A"/>
  <path d="M38,46 Q42,44 46,46" fill="none" stroke="#7B1FA2" stroke-width="1.5"/>
  <path d="M54,46 Q58,44 62,46" fill="none" stroke="#7B1FA2" stroke-width="1.5"/>
  <path d="M44,62 Q50,66 56,62" fill="#E91E63"/>
  <circle cx="34" cy="54" r="2.5" fill="#D4AF37"/>
  <circle cx="66" cy="54" r="2.5" fill="#D4AF37"/>
  <path d="M30,72 L70,72 L70,94 L30,94 Z" fill="#1A1A1A"/>
  <ellipse cx="50" cy="72" rx="20" ry="5" fill="#1A1A1A"/>
</svg>
