<svg xmlns="http://www.w3.org/2000/svg" viewBox="0 0 100 100" width="100" height="100">
  <circle cx="50" cy="50" r="48" fill="#F5E6D3"/>
  <path d="M30,48 Q28,26 50,22 Q72,26 70,48 Q70,60 66,70 L62,70 Q66,58 64,46 Q56,38 50,36 Q44,38 36,46 Q34,58 38,70 L34,70 Q30,60 30,48" fill="#3E2723"/>
  <ellipse cx="50" cy="52" rx="16" ry="18" fill="#FFE0B2"/>
  <path d="M38,50 Q42,48 46,50" fill="none" stroke="#1A1A1A" stroke-width="1.5"/>
  <path d="M54,50 Q58,48 62,50" fill="none" stroke="#1A1A1A" stroke-width="1.5"/>
  <circle cx="42" cy="51" r="1.5" fill="#1A1A1A"/>
  <circle cx="58" cy="51" r="1.5" fill="#1A1A1A"/>
  <path d="M44,62 Q50,66 56,62" fill="none" stroke="#1A1A1A" stroke-width="1.5"/>
  <circle cx="42" cy="50" r="6" fill="none" stroke="#8B5A2B" stroke-width="1.2"/>
  <circle cx="58" cy="50" r="6" fill="none" stroke="#8B5A2B" stroke-width="1.2"/>
  <line x1="48" y1="50" x2="52" y2="50" stroke="#8B5A2B" stroke-width="1.2"/>
  <path d="M36,72 Q50,82 64,72" fill="none" stroke="#C41E3A" stroke-width="5"/>
</svg>
