<svg xmlns="http://www.w3.org/2000/svg" viewBox="0 0 100 100" width="100" height="100">
  <path d="M50,8 L88,24 L88,56 C88,76 70,90 50,94 C30,90 12,76 12,56 L12,24 Z" fill="#0D47A1"/>
  <path d="M50,14 L82,28 L82,56 C82,72 68,84 50,88 C32,84 18,72 18,56 L18,28 Z" fill="none" stroke="#FFD54F" stroke-width="2"/>
  <g fill="#FFD54F">
    <path d="M36,38 C28,34 24,24 32,18" stroke="#FFD54F" stroke-width="4" fill="none" stroke-linecap="round"/>
    <path d="M64,38 C72,34 76,24 68,18" stroke="#FFD54F" stroke-width="4" fill="none" stroke-linecap="round"/>
    <polygon points="36,36 64,36 64,54 50,70 36,54"/>
    <circle cx="44" cy="48" r="2.5" fill="#0D47A1"/>
    <circle cx="56" cy="48" r="2.5" fill="#0D47A1"/>
  </g>
</svg>
