<svg xmlns="http://www.w3.org/2000/svg" viewBox="0 0 100 100" width="100" height="100">
  <rect width="100" height="100" fill="#0D0D0D"/>
  <polygon points="50,6 88,28 88,72 50,94 12,72 12,28" fill="none" stroke="#00E5FF" stroke-width="3"/>
  <polygon points="50,16 78,32 78,68 50,84 22,68 22,32" fill="none" stroke="#00E5FF" stroke-width="1.5"/>
  <g fill="none" stroke="#00E5FF" stroke-width="3" stroke-linecap="round">
    <path d="M36,38 C30,34 26,26 32,20"/>
    <path d="M64,38 C70,34 74,26 68,20"/>
  </g>
  <polygon points="36,36 64,36 64,54 50,70 36,54" fill="#00E5FF"/>
  <circle cx="44" cy="48" r="2" fill="#0D0D0D"/>
  <circle cx="56" cy="48" r="2" fill="#0D0D0D"/>
</svg>
